<svg width="24" height="24" viewBox="0 0 24 24" fill="none" xmlns="http://www.w3.org/2000/svg">
<path d="M4.75 10.1696L4.75 10.169C4.74999 10.1582 4.75249 10.1463 4.75876 10.134C4.7651 10.1215 4.77575 10.1078 4.79211 10.0956C4.79212 10.0956 4.79212 10.0956 4.79212 10.0956L11.9032 4.78069L11.9032 4.78069C11.9276 4.7625 11.9616 4.75 12 4.75C12.0384 4.75 12.0724 4.7625 12.0968 4.78069L12.0968 4.78069L19.2079 10.0956C19.2079 10.0956 19.2079 10.0956 19.2079 10.0956C19.2242 10.1078 19.2349 10.1215 19.2412 10.134C19.2475 10.1463 19.25 10.1582 19.25 10.169V10.1696V19.1459C19.25 19.1636 19.243 19.187 19.22 19.209C19.1961 19.232 19.1574 19.25 19.1111 19.25H4.88889C4.8426 19.25 4.80394 19.2321 4.77998 19.209C4.75705 19.187 4.75 19.1636 4.75 19.1459L4.75 10.1696Z" fill="white" stroke="black" stroke-width="1.5"/>
</svg>
